<?xml version="1.0" standalone="no"?>
<!DOCTYPE svg PUBLIC "-//W3C//DTD SVG 20010904//EN"
 "http://www.w3.org/TR/2001/REC-SVG-20010904/DTD/svg10.dtd">
<svg version="1.0" xmlns="http://www.w3.org/2000/svg"
 width="204.000000pt" height="192.000000pt" viewBox="0 0 204.000000 192.000000"
 preserveAspectRatio="xMidYMid meet">
<metadata>
Created by potrace 1.10, written by Peter Selinger 2001-2011
</metadata>
<g transform="translate(0.000000,192.000000) scale(0.100000,-0.100000)"
fill="#000000" stroke="none">
<path d="M803 1698 c-42 -9 -93 -50 -93 -75 0 -29 100 12 126 53 9 13 15 26
13 28 -2 1 -23 -1 -46 -6z"/>
<path d="M1140 1696 c0 -32 117 -102 137 -82 9 9 -25 54 -49 67 -38 20 -88 29
-88 15z"/>
<path d="M605 1638 c-35 -33 -59 -98 -36 -98 21 0 81 65 90 98 8 25 7 32 -5
32 -8 0 -30 -15 -49 -32z"/>
<path d="M1326 1643 c9 -40 85 -116 100 -101 12 13 -21 81 -50 103 -44 33 -58
32 -50 -2z"/>
<path d="M623 1549 c-38 -24 -41 -35 -13 -44 38 -12 130 28 130 57 0 17 -85 8
-117 -13z"/>
<path d="M1242 1558 c2 -7 24 -23 48 -36 79 -40 147 -12 70 29 -40 22 -124 26
-118 7z"/>
<path d="M441 1525 c-24 -28 -31 -45 -31 -77 l0 -41 26 24 c33 31 54 71 54
104 0 34 -12 32 -49 -10z"/>
<path d="M1503 1518 c4 -29 16 -51 41 -77 l36 -36 0 42 c0 33 -7 50 -31 78
-41 47 -53 45 -46 -7z"/>
<path d="M854 1536 c-137 -33 -281 -134 -358 -250 -43 -66 -83 -180 -92 -267
-12 -115 29 -266 98 -367 34 -50 136 -152 151 -152 5 0 7 16 5 35 -3 29 -1 35
11 30 43 -17 114 -17 180 0 l69 18 -51 32 c-29 17 -122 75 -209 128 -86 53
-168 102 -182 108 -14 7 -27 18 -30 25 -8 20 23 45 52 42 34 -4 40 -26 11 -37
l-24 -8 22 -7 c51 -16 128 22 226 112 81 76 143 116 195 127 23 5 32 11 28 21
-3 8 -2 14 3 14 4 0 4 24 -1 54 -8 44 -6 60 9 91 10 21 23 40 28 42 18 6 35
-79 31 -149 l-4 -66 33 -6 c44 -9 137 -70 221 -146 84 -77 141 -105 193 -95
34 7 35 8 13 16 -26 10 -25 32 2 37 28 6 57 -27 45 -49 -5 -11 -16 -19 -23
-19 -7 0 -78 -41 -157 -91 -79 -50 -174 -111 -212 -134 l-67 -43 64 -17 c64
-17 138 -17 180 0 17 8 19 5 13 -28 -3 -20 -2 -37 3 -37 5 0 41 31 79 70 148
147 204 354 150 550 -54 199 -221 361 -425 414 -73 19 -207 20 -280 2z m96
-36 c0 -5 -8 -11 -17 -11 -17 -1 -17 -2 0 -6 15 -4 16 -7 5 -21 -10 -12 -10
-14 0 -8 6 4 12 2 12 -3 0 -6 -9 -11 -20 -11 -21 0 -38 40 -25 59 8 14 45 14
45 1z m58 -15 c-7 -37 9 -41 17 -5 4 16 11 30 17 30 6 0 7 -7 4 -16 -3 -9 -6
-24 -6 -35 0 -14 -7 -19 -25 -19 -14 0 -25 6 -26 13 0 10 -2 10 -6 0 -10 -25
-23 -12 -23 22 0 31 3 35 26 35 23 0 26 -3 22 -25z m80 3 c8 -18 11 -19 11 -5
1 26 21 21 21 -5 0 -24 -16 -56 -23 -48 -2 3 -9 14 -15 25 -10 17 -11 18 -12
3 0 -10 -5 -18 -11 -18 -6 0 -8 7 -5 16 3 9 6 24 6 35 0 26 15 24 28 -3z
m-198 2 c0 -5 -8 -10 -17 -11 -15 0 -15 -2 2 -9 11 -5 14 -9 8 -9 -7 -1 -13
-5 -13 -11 0 -5 7 -7 15 -4 8 4 15 2 15 -4 0 -5 -9 -12 -19 -15 -15 -4 -22 2
-30 25 -6 17 -8 34 -5 39 7 12 44 11 44 -1z m-52 -40 c12 -33 -2 -42 -27 -17
-11 10 -12 8 -6 -10 10 -34 -11 -28 -25 7 -14 33 -7 51 12 32 18 -18 27 -14
20 10 -8 32 14 14 26 -22z m352 17 c0 -8 -9 -13 -20 -13 -10 1 -18 -3 -17 -9
1 -5 10 -9 19 -8 12 2 15 -2 12 -12 -4 -8 -14 -15 -25 -15 -24 0 -40 29 -28
52 11 21 59 24 59 5z m-422 -42 c14 -30 15 -35 5 -35 -5 0 -16 14 -25 30 -13
22 -14 30 -4 30 7 0 18 -11 24 -25z m510 -3 c3 -9 -3 -11 -22 -6 -19 4 -26 2
-26 -9 0 -8 7 -18 16 -21 8 -3 12 -10 9 -16 -9 -15 -45 7 -45 28 0 37 57 57
68 24z m-562 -7 c-10 -7 -15 -18 -11 -24 9 -16 25 -13 25 4 0 19 16 20 23 1 8
-20 -18 -39 -42 -31 -38 12 -36 65 3 65 20 -1 20 -1 2 -15z m407 -14 c6 -6 21
-11 33 -11 12 0 33 -9 47 -20 14 -11 27 -20 30 -20 10 0 87 -81 87 -91 0 -6 4
-8 8 -5 13 8 37 -25 71 -98 18 -36 37 -69 44 -73 17 -10 47 -11 47 -1 0 13 26
9 39 -5 6 -8 12 -40 13 -73 l3 -59 -35 -3 c-19 -2 -47 -13 -63 -24 -41 -29
-51 -24 -194 104 -35 31 -77 62 -93 70 -17 7 -30 16 -30 20 0 5 -8 8 -17 8
-40 1 -56 26 -54 85 1 56 -14 100 -43 124 -12 10 -19 10 -38 0 -38 -21 -47
-41 -48 -111 0 -58 -3 -69 -22 -82 -12 -9 -30 -16 -40 -16 -10 0 -18 -3 -18
-8 0 -4 -14 -13 -32 -21 -17 -8 -63 -44 -102 -81 -39 -37 -88 -77 -108 -88
l-37 -21 -27 22 c-17 13 -42 21 -68 22 l-40 0 3 65 c3 78 10 88 53 72 17 -6
35 -9 40 -6 11 7 58 104 58 120 0 6 7 14 15 18 8 3 15 9 15 15 0 11 79 91 91
91 5 0 9 5 9 10 0 6 7 10 15 10 8 0 15 4 15 8 0 13 101 54 155 63 65 10 204 4
218 -10z m201 -7 c9 -8 16 -19 16 -24 0 -16 -33 -41 -47 -36 -8 3 -17 6 -19 6
-9 0 -3 47 8 58 16 16 23 15 42 -4z m-624 -47 c0 -5 -14 -7 -32 -3 -30 6 -32
5 -16 -10 15 -15 15 -18 -7 -42 l-24 -26 -25 23 -25 24 22 28 c18 24 28 28 52
24 23 -4 27 -3 17 7 -24 24 -12 31 13 8 14 -13 25 -28 25 -33z m656 -6 c-9
-10 -14 -25 -10 -35 8 -20 18 -20 34 -1 14 16 40 20 40 6 0 -5 -10 -15 -22
-23 -16 -11 -19 -18 -11 -32 9 -16 11 -16 22 -2 17 20 37 20 45 0 9 -25 7 -27
-11 -13 -15 12 -16 12 -10 -5 5 -13 3 -17 -7 -13 -10 4 -13 1 -9 -9 10 -26
-16 -15 -31 14 -8 15 -28 40 -45 56 l-31 30 22 23 c25 27 49 32 24 4z m-802
-76 c-4 -10 -2 -14 7 -10 8 3 20 1 28 -4 22 -14 -5 -44 -28 -31 -44 25 -45 28
-32 44 17 20 32 21 25 1z m-30 -60 c-5 -19 -2 -25 10 -25 9 0 16 7 16 15 0 8
5 15 10 15 15 0 12 -26 -5 -40 -27 -23 -65 10 -51 45 9 26 27 17 20 -10z m960
-8 c6 -9 6 -20 2 -24 -5 -4 -11 -2 -13 5 -7 17 -33 15 -33 -4 0 -8 5 -12 10
-9 6 3 10 1 10 -5 0 -19 -35 -6 -38 14 -4 20 24 49 42 43 5 -2 14 -11 20 -20z
m-946 -61 c-12 -8 -15 -20 -11 -37 6 -24 5 -24 -26 5 -17 17 -31 33 -31 38 0
4 19 8 43 8 36 -1 40 -2 25 -14z m976 -2 c9 -23 7 -34 -4 -34 -5 0 -10 7 -10
15 0 8 -4 15 -10 15 -5 0 -7 -7 -4 -15 6 -15 -11 -22 -19 -7 -2 4 -2 2 -1 -5
2 -7 -1 -15 -6 -18 -6 -4 -10 -2 -10 4 0 5 -3 16 -6 25 -4 11 2 19 17 25 35
14 46 13 53 -5z m-4 -339 c0 -41 -90 -182 -136 -211 -17 -12 -28 -14 -36 -6
-6 6 -40 8 -87 5 -70 -5 -79 -4 -85 13 -4 11 -3 20 4 22 6 2 16 9 23 16 7 7
18 11 26 8 8 -3 11 0 8 5 -3 5 9 16 28 23 19 7 36 19 39 27 3 7 12 13 21 13 8
0 15 5 15 11 0 5 4 8 9 5 5 -3 11 1 15 9 3 8 12 15 21 15 8 0 15 5 15 10 0 6
6 10 14 10 17 0 80 32 84 43 6 11 22 -2 22 -18z m-957 -17 c90 -48 213 -123
231 -141 9 -8 21 -17 28 -19 7 -3 9 -12 5 -23 -7 -16 -16 -17 -86 -12 -46 4
-82 2 -88 -4 -5 -5 -16 -7 -25 -4 -24 9 -86 90 -123 159 -46 88 -38 95 58 44z"/>
<path d="M606 1334 c-9 -23 -8 -24 11 -17 11 4 14 3 9 -5 -5 -8 -2 -10 9 -6
14 6 14 8 -1 25 -21 23 -20 23 -28 3z"/>
<path d="M514 1463 c-12 -2 -36 -20 -54 -39 l-34 -34 31 0 c41 0 77 14 103 40
36 36 21 46 -46 33z"/>
<path d="M1410 1449 c16 -29 70 -59 108 -59 38 0 40 9 10 38 -27 25 -70 42
-104 42 -22 0 -23 -2 -14 -21z"/>
<path d="M1644 1365 c-7 -40 1 -80 23 -114 12 -19 17 -21 24 -10 13 21 11 75
-5 113 -20 49 -34 52 -42 11z"/>
<path d="M300 1347 c-16 -35 -17 -50 -9 -80 5 -20 12 -37 15 -37 3 0 14 21 25
46 15 32 19 56 14 80 -8 46 -22 43 -45 -9z"/>
<path d="M398 1314 c-16 -8 -37 -32 -48 -54 -18 -35 -18 -40 -4 -40 29 0 72
33 94 72 20 35 20 38 3 38 -10 -1 -30 -8 -45 -16z"/>
<path d="M1530 1325 c0 -4 9 -23 21 -42 24 -39 99 -83 99 -59 0 25 -20 60 -44
78 -26 19 -76 34 -76 23z"/>
<path d="M988 1265 c-6 -43 -3 -54 10 -39 5 5 5 25 2 44 l-6 35 -6 -40z"/>
<path d="M220 1154 c-6 -14 -10 -36 -10 -50 0 -29 26 -84 40 -84 18 0 22 85 6
123 -18 44 -23 45 -36 11z"/>
<path d="M1737 1160 c-17 -25 -21 -84 -8 -130 l7 -25 22 35 c25 39 27 71 9
114 l-13 30 -17 -24z"/>
<path d="M319 1111 c-31 -31 -39 -46 -39 -75 0 -35 1 -36 20 -23 33 23 61 65
67 102 3 19 2 35 -2 35 -4 0 -25 -17 -46 -39z"/>
<path d="M1619 1117 c5 -18 13 -42 20 -55 14 -25 59 -58 68 -48 13 13 -19 86
-48 110 -40 34 -48 33 -40 -7z"/>
<path d="M852 1015 c-34 -19 -87 -55 -117 -80 -63 -51 -114 -79 -164 -90 l-33
-7 38 -22 c22 -13 77 -47 124 -76 47 -29 108 -66 135 -83 28 -16 61 -37 75
-47 14 -9 35 -20 47 -24 17 -5 21 -3 18 11 -4 18 -15 327 -15 411 0 37 -3 42
-22 42 -13 0 -51 -16 -86 -35z m71 -22 c3 -5 8 -85 12 -179 7 -168 6 -171 -14
-177 -12 -3 -19 -1 -16 3 3 5 -11 14 -30 21 -19 7 -35 17 -35 21 0 4 -9 8 -20
8 -11 0 -20 5 -20 10 0 6 -7 10 -15 10 -8 0 -15 5 -15 10 0 6 -6 10 -13 10 -7
0 -24 11 -39 24 -14 14 -29 22 -32 19 -5 -6 -56 42 -56 52 0 3 15 12 33 21 17
9 60 39 93 65 34 27 67 49 73 49 6 0 11 3 11 8 0 18 74 40 83 25z"/>
<path d="M1016 819 c-4 -128 -5 -234 -2 -236 7 -7 76 33 266 156 52 33 111 69
130 80 l34 19 -34 7 c-46 9 -122 54 -185 106 -51 42 -157 99 -186 99 -14 0
-17 -29 -23 -231z m94 171 c0 -5 5 -10 12 -10 6 0 43 -24 82 -53 39 -30 88
-64 109 -76 41 -25 47 -40 17 -48 -11 -3 -18 -9 -15 -12 2 -4 -11 -14 -30 -21
-19 -8 -35 -17 -35 -22 0 -4 -7 -8 -15 -8 -9 0 -18 -7 -21 -15 -4 -8 -12 -15
-20 -15 -8 0 -14 -4 -14 -10 0 -5 -9 -10 -21 -10 -11 0 -18 -4 -15 -8 3 -5
-11 -14 -30 -21 -19 -7 -32 -16 -29 -20 2 -5 -7 -6 -21 -3 l-25 5 6 151 c7
141 11 197 14 204 4 7 51 0 51 -8z"/>
<path d="M321 930 c-22 -36 -28 -94 -12 -119 7 -11 14 -7 30 20 21 35 26 78
12 114 -7 18 -10 17 -30 -15z"/>
<path d="M1637 954 c-22 -23 7 -154 34 -154 12 0 21 58 14 88 -7 33 -38 76
-48 66z"/>
<path d="M206 908 c8 -52 24 -86 50 -103 24 -15 24 -15 24 23 0 37 -18 75 -48
100 -25 19 -31 14 -26 -20z"/>
<path d="M1742 917 c-22 -23 -46 -113 -32 -122 17 -10 63 56 70 100 8 52 -4
59 -38 22z"/>
<path d="M382 733 c-17 -31 -15 -89 5 -126 l16 -32 13 30 c18 41 17 63 -5 110
-17 39 -18 39 -29 18z"/>
<path d="M1575 714 c-18 -38 -14 -117 6 -129 18 -11 41 65 34 112 -8 56 -19
61 -40 17z"/>
<path d="M264 674 c4 -14 14 -37 23 -51 17 -25 71 -58 80 -49 13 12 -32 87
-62 106 -42 26 -48 25 -41 -6z"/>
<path d="M1683 680 c-31 -19 -80 -96 -69 -108 16 -15 74 29 94 72 31 65 29 69
-25 36z"/>
<path d="M493 550 c4 -31 15 -53 41 -79 19 -19 38 -32 41 -29 9 9 -12 79 -30
105 -9 13 -25 28 -37 34 -20 11 -21 10 -15 -31z"/>
<path d="M1452 555 c-29 -33 -52 -99 -38 -112 19 -19 86 80 86 127 0 29 -14
25 -48 -15z"/>
<path d="M890 554 c-88 -28 -129 -34 -170 -25 -38 8 -40 8 -40 -15 l0 -24 150
0 150 0 0 24 c0 23 -23 57 -38 55 -4 0 -27 -7 -52 -15z"/>
<path d="M1027 557 c-9 -7 -17 -23 -19 -37 l-3 -25 154 -3 c137 -2 153 -1 147
14 -3 8 -6 19 -6 24 0 4 -18 4 -40 -1 -40 -9 -79 -4 -172 25 -36 11 -50 12
-61 3z"/>
<path d="M400 482 c0 -27 94 -74 129 -65 21 5 21 6 4 25 -10 11 -30 26 -45 34
-30 15 -88 19 -88 6z"/>
<path d="M1472 456 c-33 -31 -35 -35 -19 -42 25 -9 106 25 125 54 14 22 14 22
-27 22 -33 0 -49 -7 -79 -34z"/>
<path d="M1020 450 c-14 -9 -7 -14 13 -11 12 2 8 -11 -10 -31 -15 -17 -15 -18
13 -17 16 0 23 3 17 6 -9 3 -10 10 -3 23 12 23 -9 43 -30 30z"/>
<path d="M1180 450 c0 -5 5 -10 11 -12 9 -3 9 -10 0 -26 -6 -12 -8 -22 -3 -22
7 0 32 42 32 54 0 2 -9 6 -20 9 -11 3 -20 1 -20 -3z"/>
<path d="M760 440 c0 -6 7 -13 15 -16 8 -4 15 -10 15 -15 0 -4 -7 -5 -17 -2
-11 4 -14 3 -9 -5 4 -7 13 -12 21 -12 23 0 29 22 11 36 -16 12 -16 13 1 17 12
3 9 5 -9 6 -16 0 -28 -4 -28 -9z"/>
<path d="M1072 423 c3 -32 38 -46 38 -16 1 17 1 17 15 -1 19 -24 45 -14 45 19
0 18 -5 25 -19 25 -11 0 -22 -6 -25 -12 -5 -10 -7 -10 -12 0 -3 6 -15 12 -25
12 -16 0 -20 -6 -17 -27z"/>
<path d="M847 434 c-10 -11 -9 -44 2 -44 5 0 12 10 14 23 l4 22 2 -22 c0 -13
6 -23 12 -23 16 0 6 44 -11 48 -9 1 -19 0 -23 -4z"/>
<path d="M903 424 c-8 -22 5 -32 44 -32 21 0 32 3 26 5 -7 3 -13 12 -13 21 0
14 2 15 10 2 5 -8 12 -11 15 -8 14 13 -6 26 -41 26 -20 0 -38 -6 -41 -14z"/>
<path d="M585 230 c-31 -71 -54 -111 -66 -115 -11 -4 -19 -13 -19 -21 0 -11
15 -14 60 -14 45 0 60 4 60 14 0 8 -7 17 -16 20 -9 3 -14 15 -12 28 2 19 10
24 47 26 46 3 61 -7 61 -40 0 -10 -7 -18 -15 -18 -8 0 -15 -7 -15 -15 0 -12
14 -15 70 -15 55 0 70 3 70 15 0 8 -8 19 -19 24 -11 6 -37 55 -61 116 -39 98
-44 105 -70 105 -25 0 -31 -8 -75 -110z m85 -17 c0 -8 -12 -13 -30 -13 -35 0
-34 -3 -14 46 l17 39 13 -30 c7 -16 13 -36 14 -42z"/>
<path d="M933 333 c-12 -2 -36 -20 -53 -39 -25 -29 -30 -43 -30 -88 0 -105 93
-164 194 -122 43 18 70 54 54 73 -9 11 -16 8 -39 -17 -37 -40 -88 -42 -118 -4
-40 50 -22 149 30 167 22 7 72 -19 89 -48 11 -17 19 -22 29 -16 23 15 -10 85
-40 88 -13 1 -40 4 -59 6 -19 3 -45 3 -57 0z"/>
<path d="M1167 326 c-4 -9 2 -17 14 -21 17 -6 19 -16 19 -95 0 -77 -2 -88 -18
-92 -10 -3 -19 -13 -19 -22 0 -14 16 -16 116 -16 l116 0 18 43 c9 23 17 46 17
50 0 14 -31 7 -37 -8 -8 -23 -57 -45 -98 -45 -35 0 -35 0 -35 44 0 40 2 44 21
39 12 -4 24 -14 26 -25 3 -10 12 -18 19 -18 10 0 14 16 14 60 0 45 -3 60 -14
60 -8 0 -16 -10 -18 -22 -2 -15 -11 -24 -25 -26 -20 -3 -23 1 -23 27 0 54 64
63 115 15 45 -42 57 -29 28 31 l-17 35 -107 0 c-84 0 -108 -3 -112 -14z"/>
</g>
</svg>
